# xmcd CD database file
#
# Track frame offsets:
#	150
#	46692
#	96177
#	147547
#	208131
#	263959
#
# Disc length: 4164 seconds
#
# Revision: 1
# Processed by: cddbd v1.5.2PL0 Copyright (c) Steve Scherf et al.
# Submitted via: CDex 1.81
#
DISCID=57104206
DTITLE=Manhattan Jazz Quintet - Manteca/Live At Sweet Basil
DYEAR=2001
DGENRE=Jazz
TTITLE0=Manteca
TTITLE1=George's Dilemma
TTITLE2=Cherokee
TTITLE3=Swing with it
TTITLE4=Sweet Bossa
TTITLE5=Stella by Starlight
EXTD=YEAR: 2001
EXTT0=
EXTT1=
EXTT2=
EXTT3=
EXTT4=
EXTT5=
PLAYORDER=
